<?xml version="1.0" standalone="no"?>
<!DOCTYPE svg PUBLIC "-//W3C//DTD SVG 20010904//EN"
 "http://www.w3.org/TR/2001/REC-SVG-20010904/DTD/svg10.dtd">
<svg version="1.0" xmlns="http://www.w3.org/2000/svg"
 width="1024.000000pt" height="1536.000000pt" viewBox="0 0 1024.000000 1536.000000"
 preserveAspectRatio="xMidYMid meet">

<g transform="translate(0.000000,1536.000000) scale(0.100000,-0.100000)"
fill="#000000" stroke="none">
<path d="M4950 14432 c-318 -89 -502 -352 -489 -700 4 -82 2 -93 -14 -98 -36
-12 -57 -64 -57 -144 0 -133 44 -249 130 -341 28 -30 50 -61 50 -71 0 -36 63
-189 107 -259 l46 -74 1 -115 c1 -146 -17 -204 -83 -270 -93 -93 -233 -149
-501 -200 -182 -35 -227 -52 -316 -115 -157 -112 -258 -302 -303 -567 -33
-194 -74 -572 -116 -1068 -28 -332 -51 -469 -96 -583 -93 -234 -118 -353 -214
-1057 -70 -511 -91 -645 -122 -795 -21 -102 -26 -156 -30 -357 -6 -263 0 -315
48 -437 79 -198 216 -359 307 -361 30 0 72 42 72 72 0 13 -24 89 -54 168 -55
146 -90 293 -84 353 3 25 7 15 22 -48 26 -116 52 -172 84 -182 40 -13 71 -5
90 25 15 23 17 55 17 262 l-1 235 -47 136 c-52 150 -58 208 -32 297 9 28 68
172 131 319 286 660 338 820 438 1358 63 334 103 513 110 495 9 -24 55 -241
82 -389 60 -337 48 -418 -143 -911 -257 -664 -337 -1040 -319 -1492 13 -325
57 -563 271 -1452 210 -875 215 -917 174 -1296 -16 -143 -22 -262 -22 -445 -1
-354 11 -438 185 -1200 131 -577 148 -662 155 -775 9 -151 -12 -209 -186 -518
-112 -199 -132 -295 -81 -379 52 -86 204 -128 435 -120 159 5 204 17 256 67
60 58 83 132 82 275 0 66 0 181 0 255 1 203 0 216 -29 345 -57 265 -41 608 63
1320 33 232 35 424 5 698 -29 264 -28 361 8 607 34 232 46 382 55 655 17 541
77 1711 89 1723 3 3 6 -6 6 -19 0 -13 4 -94 10 -179 10 -156 34 -732 45 -1065
20 -605 37 -850 80 -1115 43 -266 43 -352 -1 -710 -25 -212 -21 -370 20 -655
67 -474 89 -698 90 -940 1 -155 -2 -184 -33 -334 -33 -162 -33 -166 -23 -291
9 -94 8 -142 0 -188 -21 -112 19 -301 78 -371 13 -16 47 -39 76 -52 49 -22 66
-24 213 -24 179 0 274 17 344 63 53 34 85 93 85 158 0 60 -48 167 -163 358
-39 66 -85 155 -102 200 -59 154 -51 261 56 721 247 1056 257 1109 257 1455 0
154 -6 275 -22 425 -46 431 -37 505 176 1395 186 774 221 941 249 1195 22 190
19 480 -5 669 -43 336 -101 536 -316 1092 -128 332 -145 392 -151 539 -6 143
9 267 67 528 22 98 40 182 41 185 4 30 75 -298 129 -596 77 -423 129 -579 418
-1257 66 -154 125 -305 132 -335 23 -95 17 -164 -25 -274 -48 -130 -57 -200
-53 -430 4 -226 10 -249 72 -254 63 -5 82 25 126 201 l18 72 1 -50 c1 -66 -30
-194 -75 -302 -63 -156 -74 -192 -64 -218 14 -37 54 -58 94 -51 73 14 193 153
266 309 68 145 72 180 61 486 -7 164 -16 293 -26 336 -25 116 -53 288 -80 500
-34 264 -110 791 -135 935 -26 146 -59 262 -121 421 -56 148 -74 260 -109 684
-57 705 -98 1019 -154 1183 -88 256 -250 417 -465 458 -442 86 -622 175 -668
333 -10 35 -16 97 -17 166 l-1 110 47 74 c45 71 108 222 108 261 0 10 16 36
36 57 135 143 188 415 94 485 l-30 22 0 113 c0 147 -20 247 -72 352 -69 142
-195 250 -360 308 -98 36 -298 43 -398 15z m325 -67 c167 -42 305 -150 370
-287 54 -114 68 -197 61 -365 l-5 -143 32 0 c44 0 57 -15 57 -67 0 -110 -54
-247 -121 -308 -35 -31 -43 -47 -54 -99 -27 -126 -114 -278 -206 -359 -193
-169 -436 -151 -613 45 -30 32 -68 86 -85 118 -35 65 -81 192 -81 222 0 10
-22 40 -49 66 -58 57 -98 131 -117 221 -25 120 -15 159 42 164 l30 2 0 165 c0
153 1 171 27 246 48 142 152 266 280 331 117 59 306 80 432 48z m-443 -1718
c120 -91 285 -121 426 -78 39 12 101 41 138 66 37 25 68 45 69 45 1 0 5 -51 7
-112 4 -96 9 -121 31 -169 70 -145 250 -236 613 -309 133 -27 210 -57 279
-109 57 -43 133 -138 171 -213 82 -162 129 -435 184 -1068 61 -702 66 -741
115 -865 99 -257 121 -347 174 -720 95 -662 144 -988 167 -1110 34 -174 51
-622 28 -713 -35 -136 -163 -345 -241 -393 -60 -38 -62 -15 -8 123 67 173 95
291 95 399 0 83 -2 90 -25 105 -53 34 -78 4 -120 -146 -32 -113 -50 -153 -60
-129 -3 10 -5 122 -3 250 l3 234 39 95 c36 88 40 102 40 190 0 113 -3 122
-145 456 -296 699 -341 836 -424 1289 -48 261 -98 499 -138 647 -23 83 -23 87
-6 120 49 95 51 313 4 493 -14 54 -31 105 -37 112 -14 17 -33 16 -48 -2 -10
-13 -8 -34 15 -117 87 -324 31 -525 -173 -625 -75 -37 -78 -38 -191 -38 -98 0
-125 4 -174 24 -72 28 -149 90 -201 159 -38 52 -61 63 -83 41 -34 -34 107
-192 217 -245 94 -45 157 -57 264 -51 116 7 179 26 261 82 45 30 64 38 61 27
-46 -156 -113 -499 -126 -647 -20 -227 -9 -267 248 -945 95 -248 92 -236 45
-244 -612 -105 -1356 -123 -2038 -51 -146 16 -386 52 -393 60 -7 6 58 189 145
410 183 463 207 586 168 850 -25 165 -88 465 -121 578 -4 13 8 8 43 -19 220
-169 551 -125 714 95 52 69 59 104 23 109 -15 2 -32 -12 -63 -53 -164 -216
-469 -248 -661 -69 -76 71 -104 136 -108 258 -5 111 8 202 45 319 26 83 22
107 -17 107 -28 0 -36 -17 -66 -140 -24 -98 -28 -136 -28 -255 -1 -121 2 -148
22 -199 l22 -60 -41 -190 c-22 -105 -49 -231 -59 -281 -11 -49 -31 -155 -45
-235 -83 -470 -147 -665 -470 -1420 -98 -229 -105 -253 -105 -344 0 -55 9 -95
46 -205 l46 -136 2 -217 c1 -277 -10 -297 -62 -104 -33 122 -56 159 -97 164
-41 5 -55 -19 -55 -99 0 -98 26 -217 77 -359 75 -205 75 -208 2 -161 -54 34
-116 121 -174 244 -73 153 -78 184 -73 461 4 199 9 259 27 341 12 55 60 368
107 695 120 842 131 896 239 1176 40 102 45 127 64 300 11 104 28 275 36 379
40 487 92 912 131 1065 36 146 102 270 189 357 101 101 167 130 414 183 256
55 369 100 461 186 74 69 103 144 108 277 2 59 6 107 8 107 2 0 23 -15 46 -33z
m-782 -4167 c312 -48 664 -71 1065 -72 421 0 823 29 1143 83 68 11 125 19 126
17 2 -2 17 -55 34 -118 87 -327 124 -641 103 -895 -20 -243 -21 -245 -50 -257
-79 -32 -482 -68 -753 -68 -152 0 -430 16 -488 28 l-35 8 -7 113 c-8 121 -20
151 -63 151 -47 0 -56 -19 -66 -140 -6 -63 -15 -117 -21 -121 -22 -14 -201
-31 -388 -36 -287 -8 -672 17 -857 57 l-51 11 -9 87 c-12 133 -9 525 5 622 22
147 52 291 89 428 l37 134 30 -7 c17 -3 87 -14 156 -25z m-210 -1314 c287 -55
884 -69 1146 -26 32 5 59 8 61 6 2 -2 -12 -323 -31 -712 -20 -390 -41 -828
-46 -974 -11 -258 -18 -331 -60 -610 -26 -176 -26 -338 2 -559 34 -275 31
-463 -15 -786 -67 -475 -94 -783 -84 -975 3 -63 19 -187 36 -276 26 -142 29
-172 22 -265 -4 -57 -5 -126 -2 -154 3 -27 6 -99 6 -160 -1 -92 -4 -118 -23
-160 -31 -68 -57 -93 -116 -110 -59 -18 -220 -20 -333 -4 -162 22 -220 74
-202 177 9 47 83 203 184 387 79 144 96 205 97 346 0 141 -6 175 -133 739
-194 862 -204 920 -204 1265 0 191 6 307 24 490 37 365 27 435 -178 1292 -161
674 -249 1083 -232 1083 3 0 40 -6 81 -14z m2646 -3 c-3 -10 -10 -47 -16 -83
-29 -170 -85 -422 -195 -875 -224 -924 -238 -1029 -194 -1483 26 -268 28 -564
5 -742 -23 -183 -75 -434 -192 -933 -141 -603 -128 -533 -129 -727 l0 -175 36
-76 c20 -41 64 -124 98 -182 177 -306 192 -390 81 -447 -61 -31 -210 -53 -331
-48 -122 5 -191 31 -221 83 -29 51 -49 146 -47 225 3 115 2 214 -2 345 -3 104
0 137 25 245 24 109 28 146 28 285 0 247 -29 552 -94 980 -42 276 -43 449 -5
744 30 230 34 360 12 482 -8 46 -21 125 -30 174 -31 178 -40 334 -104 1780
-10 226 -18 411 -17 411 1 1 26 -2 56 -7 256 -41 804 -31 1110 21 137 23 132
23 126 3z"/>
<path d="M4660 9025 c0 -20 5 -25 25 -25 20 0 25 5 25 25 0 20 -5 25 -25 25
-20 0 -25 -5 -25 -25z"/>
<path d="M5060 8966 c0 -29 -3 -33 -20 -29 -16 4 -20 0 -20 -20 0 -20 4 -24
20 -20 19 5 20 0 20 -89 0 -115 12 -138 71 -138 32 0 39 3 39 20 0 15 -7 20
-25 20 -25 0 -25 0 -25 96 0 93 1 95 23 92 16 -2 23 3 25 20 3 18 -1 22 -22
22 -22 0 -26 4 -26 30 0 27 -3 30 -30 30 -27 0 -30 -3 -30 -34z"/>
<path d="M4434 8921 c-51 -31 -69 -116 -40 -185 19 -46 52 -66 108 -66 51 0
91 26 103 68 6 19 3 22 -22 22 -20 0 -31 -7 -38 -22 -13 -29 -60 -36 -86 -12
-28 25 -27 126 1 154 32 32 75 24 91 -16 6 -17 16 -24 34 -24 28 0 30 7 13 45
-24 53 -106 71 -164 36z"/>
<path d="M4660 8805 l0 -135 25 0 25 0 0 135 0 135 -25 0 -25 0 0 -135z"/>
<path d="M4770 8805 l0 -135 30 0 30 0 0 104 0 104 29 12 c61 25 81 -11 81
-146 0 -73 0 -74 26 -74 l26 0 -4 116 c-3 108 -5 117 -27 135 -28 23 -75 24
-113 5 -24 -13 -28 -13 -28 0 0 8 -10 14 -25 14 l-25 0 0 -135z"/>
<path d="M5217 8933 c-10 -9 -8 -151 2 -196 5 -21 18 -45 28 -52 25 -20 92
-19 115 2 17 15 18 15 18 0 0 -11 8 -17 25 -17 l25 0 0 135 0 135 -25 0 c-25
0 -25 0 -25 -99 0 -110 -9 -131 -59 -131 -45 0 -51 15 -51 127 0 101 0 103
-23 103 -13 0 -27 -3 -30 -7z"/>
<path d="M5490 8804 l0 -135 25 3 c25 3 26 5 28 94 2 98 13 124 52 124 23 0
40 24 29 41 -8 14 -37 11 -62 -7 -20 -14 -22 -14 -22 0 0 10 -9 16 -25 16
l-25 0 0 -136z"/>
<path d="M5705 8929 c-25 -15 -45 -39 -45 -56 0 -20 37 -16 60 7 22 22 42 25
71 10 22 -12 28 -72 7 -69 -7 1 -32 1 -56 0 -78 -2 -116 -68 -71 -125 16 -21
29 -26 63 -26 23 0 52 7 64 16 20 14 22 14 22 0 0 -11 9 -16 28 -16 l27 0 -5
110 c-4 95 -8 112 -27 131 -25 25 -107 36 -138 18z m105 -169 c0 -34 -26 -53
-68 -48 -19 2 -28 9 -30 26 -5 34 15 52 59 52 37 0 39 -2 39 -30z"/>
<path d="M1760 10430 c0 -15 7 -20 25 -20 18 0 25 5 25 20 0 15 -7 20 -25 20
-18 0 -25 -5 -25 -20z"/>
<path d="M2160 10375 c0 -28 -4 -35 -20 -35 -11 0 -20 -7 -20 -15 0 -8 9 -15
20 -15 19 0 20 -7 20 -93 0 -111 12 -137 66 -137 28 0 34 4 34 21 0 14 -5 19
-14 16 -27 -10 -36 17 -36 105 0 87 0 88 25 88 16 0 25 6 25 15 0 9 -9 15 -25
15 -22 0 -25 4 -25 35 0 31 -3 35 -25 35 -22 0 -25 -4 -25 -35z"/>
<path d="M1554 10336 c-49 -22 -64 -51 -64 -126 0 -75 15 -105 64 -125 58 -24
146 13 146 61 0 21 -38 17 -50 -6 -15 -28 -55 -36 -84 -16 -52 34 -39 167 17
181 31 8 63 -8 72 -35 7 -24 45 -27 45 -4 0 29 -21 56 -55 70 -42 17 -51 17
-91 0z"/>
<path d="M1970 10343 c-8 -3 -23 -12 -32 -21 -16 -14 -18 -13 -18 1 0 11 -8
17 -25 17 l-25 0 0 -130 0 -130 25 0 c24 0 24 1 27 102 3 99 4 103 30 117 21
12 31 13 52 3 26 -11 26 -13 26 -117 l0 -105 25 0 25 0 0 106 c0 58 -4 114
-10 124 -5 10 -24 23 -41 29 -35 12 -37 12 -59 4z"/>
<path d="M2656 10329 c-21 -17 -26 -18 -26 -5 0 10 -9 16 -22 16 -23 0 -23 -2
-23 -130 l0 -130 28 0 27 0 0 98 c0 104 7 122 47 122 18 0 23 6 23 25 0 31
-18 32 -54 4z"/>
<path d="M2803 10339 c-20 -6 -39 -21 -48 -39 -15 -30 -15 -30 12 -30 17 0 33
8 41 20 25 41 92 15 92 -36 0 -22 -4 -24 -45 -24 -96 0 -145 -63 -99 -128 19
-27 87 -31 122 -6 20 14 22 14 22 0 0 -11 10 -16 31 -16 24 0 30 3 25 16 -3 9
-6 56 -6 104 0 78 -3 92 -22 114 -26 29 -78 39 -125 25z m97 -169 c0 -40 -40
-67 -78 -54 -59 21 -30 84 39 84 37 0 39 -2 39 -30z"/>
<path d="M1760 10210 l0 -130 25 0 25 0 0 130 0 130 -25 0 -25 0 0 -130z"/>
<path d="M2310 10236 c0 -115 14 -149 66 -159 30 -5 84 10 84 24 0 5 5 9 10 9
6 0 10 -7 10 -15 0 -8 9 -15 20 -15 19 0 20 7 20 130 l0 130 -25 0 c-25 0 -25
0 -25 -99 0 -92 -2 -101 -22 -115 -30 -21 -44 -20 -68 4 -17 17 -20 33 -20
115 0 95 0 95 -25 95 l-25 0 0 -104z"/>
<path d="M2290 5870 l0 -190 25 0 25 0 0 190 0 190 -25 0 -25 0 0 -190z"/>
<path d="M2690 5975 c0 -28 -4 -35 -20 -35 -11 0 -20 -7 -20 -15 0 -8 9 -15
20 -15 19 0 20 -7 20 -93 0 -111 12 -137 66 -137 27 0 34 4 34 19 0 13 -8 21
-22 23 -22 3 -23 8 -26 96 l-3 92 26 0 c16 0 25 6 25 15 0 9 -9 15 -25 15 -22
0 -25 4 -25 35 0 31 -3 35 -25 35 -22 0 -25 -4 -25 -35z"/>
<path d="M2063 5940 c-71 -29 -83 -179 -18 -240 18 -17 32 -21 62 -18 21 3 46
8 55 12 13 6 16 3 11 -16 -11 -46 -34 -61 -85 -55 -35 5 -48 2 -52 -9 -6 -16
30 -34 70 -34 37 0 91 26 103 48 7 12 11 81 11 166 0 139 -1 146 -20 146 -12
0 -20 -7 -20 -16 0 -13 -5 -12 -26 5 -28 22 -55 25 -91 11z m89 -47 c14 -13
18 -31 18 -85 0 -63 -2 -69 -24 -79 -59 -27 -104 23 -93 102 9 70 57 100 99
62z"/>
<path d="M2905 5940 c-87 -36 -101 -192 -21 -241 50 -30 156 -19 156 17 0 19
-20 28 -33 15 -6 -6 -28 -11 -48 -11 -29 0 -43 6 -58 26 -37 48 -30 54 64 54
l85 0 0 31 c0 86 -71 140 -145 109z m77 -47 c10 -9 18 -24 18 -35 0 -15 -8
-18 -60 -18 -33 0 -60 4 -60 9 0 4 9 20 21 35 23 30 54 33 81 9z"/>
<path d="M3153 5936 c-46 -21 -66 -66 -61 -138 4 -47 10 -64 31 -86 23 -23 36
-27 82 -27 46 0 59 4 82 27 21 22 27 39 31 85 2 32 -1 70 -7 85 -20 53 -99 80
-158 54z m94 -48 c18 -17 23 -32 23 -73 0 -66 -20 -95 -65 -95 -44 0 -65 29
-65 91 0 84 56 125 107 77z"/>
<path d="M3414 5936 c-33 -15 -44 -33 -44 -71 0 -29 15 -41 81 -63 60 -21 80
-42 60 -66 -19 -23 -78 -21 -93 4 -13 20 -58 28 -58 11 0 -6 10 -22 23 -36 46
-54 168 -40 183 21 10 39 -10 71 -53 84 -74 23 -93 33 -93 49 0 42 58 56 87
21 18 -20 63 -28 63 -11 0 6 -10 21 -22 35 -28 32 -90 42 -134 22z"/>
<path d="M2400 5850 c0 -107 16 -156 54 -166 32 -8 96 3 96 16 0 6 5 10 10 10
6 0 10 -7 10 -15 0 -8 9 -15 20 -15 19 0 20 7 20 130 l0 130 -24 0 c-25 0 -25
-1 -22 -90 3 -108 -8 -130 -59 -130 -47 0 -55 20 -55 129 0 90 0 91 -25 91
-25 0 -25 -1 -25 -90z"/>
<path d="M2570 3665 c0 -20 5 -25 25 -25 20 0 25 5 25 25 0 20 -5 25 -25 25
-20 0 -25 -5 -25 -25z"/>
<path d="M2390 3573 c-8 -3 -23 -12 -32 -21 -16 -14 -18 -13 -18 1 0 10 -8 17
-20 17 -19 0 -20 -7 -20 -175 l0 -175 25 0 c24 0 25 3 25 55 0 51 10 69 25 45
11 -17 71 -11 98 11 53 41 60 161 14 214 -22 25 -70 39 -97 28z m50 -51 c27
-22 37 -90 20 -132 -14 -35 -50 -48 -86 -31 -22 10 -24 16 -24 77 0 95 36 130
90 86z"/>
<path d="M2743 3566 c-17 -8 -39 -28 -47 -45 -21 -39 -21 -130 0 -159 20 -29
65 -52 102 -52 34 0 92 19 92 30 0 16 -26 29 -40 20 -44 -28 -120 4 -120 50 0
18 7 20 85 20 84 0 85 0 85 25 0 33 -22 86 -43 103 -24 20 -79 24 -114 8z m79
-38 c9 -7 19 -23 22 -35 6 -20 3 -21 -54 -25 -67 -3 -78 9 -40 50 23 25 49 28
72 10z"/>
<path d="M3016 3559 c-21 -17 -26 -18 -26 -5 0 10 -9 16 -22 16 -23 0 -23 -1
-21 -127 l2 -128 25 -3 26 -3 0 98 c0 105 7 123 47 123 18 0 23 6 23 25 0 31
-18 32 -54 4z"/>
<path d="M3200 3573 c-8 -3 -24 -13 -34 -22 -18 -15 -19 -15 -13 2 5 13 1 17
-18 17 l-25 0 0 -130 0 -130 25 0 c25 0 25 0 25 98 0 106 11 132 58 132 42 0
52 -24 52 -131 0 -99 0 -99 25 -99 25 0 25 0 25 98 0 53 -3 107 -6 120 -10 37
-71 61 -114 45z"/>
<path d="M3433 3566 c-27 -12 -53 -42 -53 -60 0 -14 42 -4 60 14 25 25 62 26
84 1 19 -21 18 -58 -2 -54 -26 6 -118 -19 -129 -34 -20 -26 -16 -80 7 -103 26
-26 80 -26 113 0 25 20 25 20 30 0 3 -13 14 -20 29 -20 23 0 23 2 20 83 -4
111 -9 141 -30 160 -26 23 -91 30 -129 13z m105 -158 c6 -48 -84 -82 -107 -40
-13 24 10 59 42 65 45 9 62 3 65 -25z"/>
<path d="M3690 3568 c-14 -8 -31 -26 -39 -42 -12 -25 -11 -31 6 -54 11 -15 42
-33 75 -44 58 -20 77 -41 57 -64 -18 -22 -77 -18 -91 6 -14 22 -58 27 -58 7 0
-49 115 -85 165 -53 68 45 46 110 -45 136 -60 17 -81 40 -61 64 19 23 68 20
83 -4 14 -22 58 -27 58 -7 0 44 -100 81 -150 55z"/>
<path d="M2570 3440 l0 -130 25 0 25 0 0 130 0 130 -25 0 -25 0 0 -130z"/>
</g>
</svg>
