<?xml version="1.0" standalone="no"?>
<!DOCTYPE svg PUBLIC "-//W3C//DTD SVG 20010904//EN"
 "http://www.w3.org/TR/2001/REC-SVG-20010904/DTD/svg10.dtd">
<svg version="1.0" xmlns="http://www.w3.org/2000/svg"
 width="1024.000000pt" height="1536.000000pt" viewBox="0 0 1024.000000 1536.000000"
 preserveAspectRatio="xMidYMid meet">

<g transform="translate(0.000000,1536.000000) scale(0.100000,-0.100000)"
fill="#000000" stroke="none">
<path d="M4972 14530 c-158 -29 -290 -109 -365 -222 -72 -111 -104 -238 -113
-463 l-7 -150 -31 -20 c-66 -43 -79 -117 -51 -281 19 -108 53 -186 92 -210 15
-10 30 -19 31 -20 2 -1 14 -51 27 -111 13 -59 38 -153 55 -208 60 -186 52
-267 -35 -352 -66 -64 -196 -129 -415 -207 -85 -30 -245 -87 -355 -127 -110
-39 -229 -86 -265 -105 -131 -68 -227 -169 -296 -309 -89 -182 -116 -338 -113
-650 1 -123 -3 -210 -9 -227 -38 -95 -68 -377 -82 -779 -10 -268 -14 -315 -35
-394 -59 -221 -59 -227 -60 -915 l-1 -635 -27 -160 c-36 -217 -50 -365 -50
-525 0 -114 4 -150 25 -231 56 -208 201 -418 333 -480 109 -52 214 -34 230 41
8 37 -17 95 -77 175 -68 92 -96 144 -114 215 -14 54 -14 73 -4 118 6 29 14 52
16 50 2 -3 13 -51 25 -109 11 -59 32 -125 47 -152 43 -80 111 -98 149 -40 16
24 18 54 18 263 0 268 -2 274 -107 503 -46 101 -51 119 -50 177 1 78 35 210
131 510 129 404 160 549 221 1048 11 90 31 202 45 250 29 103 50 226 65 377 6
61 14 130 17 155 l6 45 8 -35 c43 -188 122 -588 134 -675 26 -192 15 -359 -35
-585 -79 -353 -149 -784 -175 -1085 -8 -99 -20 -220 -25 -270 -32 -280 -30
-627 5 -1025 22 -250 88 -736 136 -1005 38 -210 42 -249 46 -445 5 -221 5
-224 -48 -640 -16 -126 -22 -233 -23 -380 -1 -246 11 -321 133 -864 127 -559
143 -663 145 -936 1 -160 -1 -181 -23 -245 -34 -101 -62 -153 -166 -310 -107
-163 -135 -224 -135 -295 0 -86 28 -119 130 -150 101 -30 246 -42 390 -30 153
12 219 30 270 76 62 57 74 108 66 283 -9 182 -9 147 -1 346 6 122 4 204 -6
290 -27 244 -8 461 77 844 40 183 88 470 105 626 14 131 7 399 -17 665 -23
266 -17 407 29 590 53 217 58 249 82 579 8 112 24 281 35 375 19 156 30 235
74 531 14 88 42 361 62 588 3 43 8 77 9 75 2 -2 9 -59 15 -128 15 -173 74
-689 109 -965 17 -126 37 -320 46 -430 22 -268 48 -441 91 -610 49 -188 55
-348 25 -690 -12 -131 -21 -289 -21 -350 0 -186 44 -502 116 -830 87 -398 107
-598 83 -811 -8 -65 -13 -175 -13 -244 2 -188 3 -415 1 -505 -1 -44 5 -104 12
-133 19 -78 49 -108 134 -134 65 -21 92 -23 267 -22 142 0 215 5 267 17 148
33 179 65 171 176 -6 80 -14 97 -133 276 -180 271 -190 302 -189 585 0 206 2
223 38 405 20 105 51 251 67 325 66 293 91 424 125 632 62 393 62 561 -2 1003
-37 255 -28 538 26 810 56 290 113 721 147 1120 43 513 8 1160 -92 1715 -19
102 -50 277 -70 390 -20 113 -46 250 -57 305 -18 83 -22 134 -22 305 0 196 2
212 33 350 18 80 52 239 76 355 48 235 44 236 70 -15 19 -180 40 -302 65 -383
11 -34 31 -147 45 -252 54 -402 67 -484 92 -595 24 -112 105 -391 183 -638 45
-142 82 -317 73 -353 -3 -13 -35 -89 -70 -168 -85 -188 -93 -229 -93 -481 0
-175 3 -210 18 -240 18 -36 49 -48 97 -36 37 9 84 112 105 227 10 55 20 102
23 106 3 3 11 -14 17 -38 24 -89 -12 -207 -103 -337 -72 -103 -87 -134 -87
-180 0 -90 106 -116 225 -55 133 69 271 278 332 503 13 51 17 104 17 250 -1
195 -8 277 -50 530 l-26 155 7 530 c8 623 0 737 -65 980 -15 53 -22 133 -30
335 -18 439 -40 660 -84 825 -22 82 -24 103 -19 240 10 277 -23 466 -112 652
-35 71 -63 110 -125 176 -93 99 -176 147 -375 218 -682 243 -805 301 -859 411
-42 84 -37 172 19 347 24 76 49 168 54 203 6 34 15 64 20 66 74 25 131 183
131 363 l0 93 -45 42 c-44 41 -45 42 -45 105 0 110 -29 317 -55 397 -14 42
-46 107 -70 143 -67 98 -138 150 -270 195 -70 24 -98 27 -220 30 -77 2 -164
-1 -193 -6z m341 -55 c188 -40 313 -153 367 -335 23 -75 50 -284 50 -382 0
-82 11 -114 43 -122 41 -10 61 -66 53 -150 -7 -79 -31 -176 -52 -217 -8 -16
-29 -33 -49 -40 -22 -8 -37 -21 -40 -34 -2 -11 -11 -55 -19 -97 -9 -42 -33
-132 -56 -201 -45 -140 -52 -232 -24 -327 43 -146 224 -247 761 -426 397 -131
511 -211 618 -429 82 -166 112 -348 102 -625 -5 -146 -4 -172 13 -223 53 -161
76 -361 91 -782 10 -293 14 -339 34 -415 62 -224 60 -197 60 -910 l0 -655 27
-145 c53 -290 62 -560 22 -710 -37 -142 -130 -307 -223 -392 -67 -63 -115 -88
-164 -88 -95 0 -90 32 29 215 75 115 98 180 98 275 0 60 -4 83 -23 116 -24 44
-59 67 -80 55 -6 -4 -20 -60 -31 -123 -22 -127 -42 -192 -67 -220 -22 -24 -40
-23 -54 4 -14 27 -6 431 11 498 6 25 41 108 78 185 63 131 67 144 66 205 -1
77 -22 160 -115 460 -142 454 -166 569 -234 1100 -13 108 -31 215 -39 238 -44
123 -88 457 -109 820 -6 105 -14 192 -17 192 -4 0 -13 -39 -20 -87 -14 -101
-64 -358 -145 -748 -76 -370 -83 -563 -29 -818 16 -76 78 -421 129 -718 116
-677 131 -1337 45 -2004 -61 -469 -84 -624 -110 -760 -55 -278 -63 -548 -25
-814 45 -316 56 -616 31 -821 -16 -127 -93 -542 -132 -715 -36 -156 -80 -376
-109 -543 -29 -167 -34 -395 -10 -525 18 -104 52 -172 178 -360 119 -178 140
-222 135 -292 -2 -38 -8 -52 -29 -68 -46 -34 -134 -49 -324 -54 -250 -7 -333
14 -376 98 -28 57 -33 115 -19 240 9 89 9 146 0 278 -10 133 -10 184 0 256 27
195 23 408 -12 625 -6 36 -34 180 -64 320 -113 539 -130 758 -94 1163 32 358
27 499 -28 715 -41 163 -56 262 -87 612 -15 168 -28 275 -95 820 -16 135 -39
337 -50 450 -53 557 -52 545 -70 545 -10 0 -17 -15 -22 -45 -13 -80 -48 -400
-69 -625 -19 -211 -26 -264 -69 -530 -31 -189 -48 -346 -75 -683 -26 -314 -43
-430 -91 -617 -36 -142 -42 -315 -18 -555 12 -121 18 -268 19 -425 0 -280 -11
-364 -105 -835 -96 -480 -109 -613 -81 -877 10 -96 12 -172 6 -285 -5 -84 -7
-187 -5 -228 2 -41 4 -128 5 -192 0 -103 -2 -120 -21 -144 -58 -78 -145 -98
-399 -91 -259 7 -335 35 -335 123 0 68 28 126 137 289 158 237 182 296 190
477 11 222 -19 456 -106 847 -169 752 -192 912 -172 1184 6 89 25 274 42 412
44 364 41 609 -10 855 -47 224 -126 831 -162 1240 -15 179 -16 595 -1 745 7
66 19 192 28 280 35 369 68 585 164 1065 66 331 78 450 62 623 -7 73 -23 184
-37 247 -131 632 -174 855 -175 903 0 20 -4 37 -9 37 -5 0 -9 -51 -10 -112 0
-113 -30 -437 -56 -619 -8 -52 -27 -145 -44 -205 -16 -60 -34 -158 -41 -219
-48 -463 -120 -794 -269 -1244 -124 -372 -126 -411 -37 -587 78 -153 96 -226
103 -409 7 -181 -2 -304 -23 -312 -41 -15 -74 60 -104 237 -10 62 -24 116 -31
121 -33 20 -82 -43 -99 -126 -21 -103 9 -191 125 -365 35 -52 66 -105 69 -116
18 -62 -92 -72 -181 -18 -55 34 -165 166 -212 254 -51 95 -81 196 -90 300 -10
116 2 340 29 515 55 358 53 322 41 835 -14 589 -10 655 63 985 21 95 26 153
36 435 13 396 38 619 81 725 8 20 12 113 13 280 2 267 11 339 61 484 41 121
83 190 170 276 102 103 160 133 429 225 311 106 499 176 612 230 83 40 111 60
161 113 48 52 63 76 73 117 18 77 6 176 -40 317 -22 67 -48 163 -57 213 -17
88 -19 93 -57 118 -30 20 -44 40 -57 78 -23 65 -39 162 -39 233 0 51 3 57 44
95 l43 41 12 161 c7 88 18 189 26 225 49 233 175 368 388 414 83 18 276 18
360 0z"/>
<path d="M4620 9153 c0 -29 3 -33 25 -33 22 0 25 4 25 34 0 30 -3 34 -25 32
-21 -1 -25 -6 -25 -33z"/>
<path d="M5040 9120 c0 -33 -3 -40 -20 -40 -13 0 -20 -7 -20 -20 0 -13 7 -20
20 -20 19 0 20 -7 20 -98 0 -119 8 -135 71 -136 33 -1 44 3 47 16 2 12 -5 17
-30 20 l-33 3 -3 98 -3 97 36 0 c28 0 35 4 35 20 0 16 -7 20 -35 20 -34 0 -35
1 -35 40 0 36 -2 40 -25 40 -22 0 -25 -4 -25 -40z"/>
<path d="M5590 9078 c-14 -5 -33 -19 -42 -31 l-18 -22 0 28 c0 20 -5 27 -20
27 -19 0 -20 -7 -20 -135 l0 -135 25 0 c25 0 25 1 25 86 0 109 16 143 68 144
15 0 22 6 22 19 0 26 -10 31 -40 19z"/>
<path d="M4388 9057 c-36 -31 -48 -58 -48 -114 0 -94 72 -158 151 -134 57 17
107 91 62 91 -10 0 -27 -12 -39 -27 -15 -19 -30 -26 -54 -26 -46 0 -69 33 -70
101 0 43 5 57 25 77 31 32 59 32 91 0 24 -24 64 -34 64 -16 0 5 -13 23 -29 40
-25 26 -36 31 -78 31 -35 0 -55 -6 -75 -23z"/>
<path d="M4620 8946 c0 -134 0 -136 23 -136 22 0 22 1 20 132 -2 126 -3 133
-22 136 -20 3 -21 -1 -21 -132z"/>
<path d="M4740 8945 l0 -135 26 0 25 0 -3 101 c-2 96 -1 102 21 120 28 23 50
24 77 5 16 -12 19 -29 22 -120 4 -104 4 -106 28 -106 24 0 24 1 24 100 0 105
-13 151 -45 164 -33 12 -83 6 -109 -15 l-26 -20 0 20 c0 14 -6 21 -20 21 -19
0 -20 -7 -20 -135z"/>
<path d="M5204 9065 c-4 -9 -5 -60 -2 -115 3 -87 7 -103 26 -122 28 -29 92
-31 121 -4 19 17 21 17 21 3 0 -11 8 -17 25 -17 l25 0 0 135 0 135 -25 0 -25
0 0 -100 c0 -87 -3 -103 -20 -120 -24 -24 -48 -25 -78 -4 -20 14 -22 23 -22
120 0 98 -1 104 -20 104 -11 0 -23 -7 -26 -15z"/>
<path d="M5697 9055 c-15 -15 -27 -34 -27 -41 0 -23 37 -16 64 11 27 27 47 31
77 15 22 -12 26 -60 6 -60 -33 0 -119 -33 -137 -52 -25 -28 -26 -79 -1 -102
29 -27 81 -30 124 -8 29 16 37 17 37 6 0 -9 11 -14 30 -14 28 0 29 2 20 26 -6
14 -10 65 -10 113 0 113 -7 124 -91 129 -59 4 -66 2 -92 -23z m133 -144 c0
-47 -26 -71 -77 -71 -35 0 -58 26 -47 54 5 13 91 54 117 55 4 1 7 -17 7 -38z"/>
<path d="M1188 10538 l-3 -188 23 0 c13 0 22 6 22 15 0 12 6 11 33 -5 37 -23
65 -25 101 -8 76 34 87 176 20 239 -35 32 -94 32 -128 0 l-26 -24 0 79 c0 73
-2 80 -20 80 -18 0 -19 -9 -22 -188z m175 20 c20 -23 24 -117 6 -149 -15 -29
-57 -42 -90 -29 -33 14 -49 48 -49 103 0 90 80 135 133 75z"/>
<path d="M1478 10695 c-6 -29 -2 -35 24 -35 13 0 18 8 18 30 0 39 -35 43 -42
5z"/>
<path d="M1665 10606 c-42 -19 -65 -48 -76 -96 -19 -84 24 -157 98 -167 50 -7
97 16 118 57 14 27 14 30 -1 30 -9 0 -29 -13 -44 -30 -35 -38 -64 -38 -101 -1
-23 24 -29 38 -29 74 0 88 79 138 132 85 25 -25 48 -32 48 -14 0 25 -32 56
-68 66 -45 12 -40 12 -77 -4z"/>
<path d="M1923 10604 c-45 -23 -66 -73 -61 -147 4 -52 9 -64 36 -88 44 -39
107 -40 151 -3 32 27 41 54 18 54 -8 0 -24 -11 -37 -25 -46 -49 -109 -27 -130
44 l-9 31 101 0 101 0 -7 41 c-9 53 -30 85 -68 98 -41 14 -57 14 -95 -5z m81
-25 c20 -9 46 -52 46 -75 0 -2 -34 -4 -75 -4 -41 0 -75 4 -75 10 0 21 24 59
44 68 28 14 31 14 60 1z"/>
<path d="M2240 10609 c-13 -6 -33 -17 -42 -26 -17 -15 -18 -15 -18 5 0 15 -6
22 -20 22 -20 0 -20 -5 -18 -187 3 -180 4 -188 23 -188 18 0 20 6 19 73 -1 39
1 72 3 72 3 0 16 -9 30 -20 37 -29 86 -26 125 9 28 25 32 35 36 93 5 80 -14
123 -63 144 -39 16 -41 16 -75 3z m80 -57 c14 -17 20 -40 20 -74 0 -41 -5 -54
-29 -79 -36 -35 -61 -37 -97 -6 -24 21 -27 31 -26 76 1 72 9 91 44 106 39 16
63 9 88 -23z"/>
<path d="M1480 10480 c0 -123 1 -130 20 -130 19 0 20 7 20 130 0 123 -1 130
-20 130 -19 0 -20 -7 -20 -130z"/>
<path d="M1500 6145 c0 -178 1 -185 20 -185 19 0 20 7 20 185 0 178 -1 185
-20 185 -19 0 -20 -7 -20 -185z"/>
<path d="M1932 6260 c3 -36 1 -40 -19 -40 -14 0 -23 -6 -23 -15 0 -9 9 -15 25
-15 l25 0 0 -108 c0 -71 4 -112 12 -120 18 -18 88 -16 88 3 0 9 -9 15 -25 15
-35 0 -45 27 -45 124 l0 86 35 0 c24 0 35 5 35 15 0 10 -11 15 -35 15 -34 0
-35 1 -35 40 0 34 -3 40 -21 40 -19 0 -21 -5 -17 -40z"/>
<path d="M1263 6215 c-90 -39 -99 -196 -13 -240 42 -22 74 -19 111 12 l32 27
-5 -52 c-7 -69 -19 -82 -79 -82 -41 0 -51 4 -65 25 -14 22 -54 36 -54 19 0
-12 24 -50 39 -61 27 -20 84 -25 126 -11 64 21 75 54 75 226 0 135 -1 142 -20
142 -13 0 -20 -7 -20 -20 0 -20 0 -20 -27 -1 -40 28 -64 32 -100 16z m87 -35
c45 -24 50 -135 7 -165 -29 -20 -80 -19 -100 3 -42 46 -41 109 0 154 18 20 64
24 93 8z"/>
<path d="M2160 6219 c-41 -16 -58 -38 -70 -89 -15 -64 0 -120 42 -155 28 -24
39 -27 82 -22 38 3 55 11 73 31 13 15 23 31 23 37 0 17 -29 9 -54 -16 -48 -48
-117 -20 -132 53 l-7 32 97 -2 96 -3 0 30 c0 39 -33 93 -66 105 -31 12 -51 12
-84 -1z m77 -34 c11 -8 26 -28 31 -45 l11 -30 -80 0 c-43 0 -79 2 -79 5 0 19
35 67 53 75 31 12 40 12 64 -5z"/>
<path d="M2419 6207 c-44 -29 -59 -60 -59 -122 0 -104 85 -164 169 -121 63 33
86 115 52 190 -15 35 -29 50 -55 61 -48 20 -67 19 -107 -8z m94 -27 c35 -27
49 -75 37 -125 -27 -117 -150 -87 -150 37 0 41 5 54 29 79 35 34 50 36 84 9z"/>
<path d="M2683 6216 c-20 -9 -35 -24 -39 -41 -11 -45 9 -71 73 -95 86 -32 101
-51 67 -84 -25 -26 -72 -20 -103 13 -32 34 -61 29 -42 -8 19 -34 68 -54 120
-48 113 13 106 126 -10 157 -24 7 -50 17 -56 22 -19 16 -16 46 6 58 30 16 50
12 77 -15 14 -14 31 -25 39 -25 42 0 -17 67 -65 74 -20 4 -48 0 -67 -8z"/>
<path d="M1620 6110 c0 -104 1 -112 25 -135 36 -37 98 -30 132 14 11 14 12 13
13 -6 0 -18 6 -23 25 -23 l25 0 0 130 0 130 -25 0 c-25 0 -25 0 -25 -99 0 -96
-1 -100 -26 -120 -33 -26 -66 -27 -87 -3 -14 15 -17 40 -17 120 0 95 -1 102
-20 102 -19 0 -20 -7 -20 -110z"/>
<path d="M3020 3870 c0 -183 1 -190 20 -190 19 0 20 7 20 190 0 183 -1 190
-20 190 -19 0 -20 -7 -20 -190z"/>
<path d="M3140 3870 c0 -183 1 -190 20 -190 19 0 20 7 20 190 0 183 -1 190
-20 190 -19 0 -20 -7 -20 -190z"/>
<path d="M2900 4025 c0 -20 5 -25 25 -25 20 0 25 5 25 25 0 20 -5 25 -25 25
-20 0 -25 -5 -25 -25z"/>
<path d="M2088 3988 c-3 -37 -6 -43 -25 -42 -13 0 -23 -5 -23 -12 0 -7 10 -14
23 -16 21 -3 22 -8 24 -98 4 -139 5 -140 58 -140 51 0 66 26 18 32 l-28 3 -3
103 -3 102 31 0 c16 0 30 5 30 10 0 6 -13 10 -30 10 -29 0 -30 2 -30 45 0 38
-3 45 -19 45 -16 0 -20 -8 -23 -42z"/>
<path d="M1256 3925 c-24 -22 -26 -23 -26 -5 0 13 -7 20 -20 20 -19 0 -20 -7
-20 -185 0 -178 1 -185 20 -185 18 0 20 7 20 76 l0 75 26 -20 c32 -25 90 -27
123 -5 66 47 66 191 0 238 -35 24 -91 21 -123 -9z m104 -25 c25 -25 34 -61 27
-107 -14 -87 -105 -114 -142 -42 -26 49 -14 127 23 155 25 20 69 17 92 -6z"/>
<path d="M1515 3925 c-14 -13 -25 -31 -25 -40 0 -23 30 -18 52 10 14 18 29 25
53 25 60 0 76 -57 20 -74 -98 -29 -117 -39 -130 -69 -33 -79 58 -129 143 -77
32 20 32 20 32 0 0 -15 7 -20 26 -20 21 0 25 3 19 18 -4 9 -10 55 -12 102 -2
47 -6 94 -8 106 -10 48 -128 62 -170 19z m135 -144 c0 -48 -26 -71 -82 -71
-27 0 -40 5 -48 20 -16 30 3 56 52 73 70 25 78 23 78 -22z"/>
<path d="M1855 3938 c-11 -6 -26 -18 -32 -26 -11 -14 -13 -13 -13 6 0 15 -6
22 -20 22 -19 0 -20 -7 -20 -130 0 -123 1 -130 20 -130 19 0 20 7 20 94 0 79
3 97 21 120 22 28 56 34 90 16 17 -10 19 -22 19 -120 0 -103 1 -110 20 -110
19 0 20 7 20 115 0 102 -2 117 -20 135 -22 22 -73 26 -105 8z"/>
<path d="M2303 3940 c-46 -19 -75 -93 -63 -161 21 -112 164 -138 215 -39 32
61 13 159 -37 194 -24 17 -80 20 -115 6z m102 -45 c20 -20 25 -34 25 -78 0
-70 -26 -107 -75 -107 -49 0 -75 37 -75 107 0 44 5 58 25 78 13 14 36 25 50
25 14 0 37 -11 50 -25z"/>
<path d="M2601 3924 c-30 -25 -31 -25 -31 -5 0 14 -6 21 -20 21 -19 0 -20 -7
-20 -130 l0 -130 25 0 c25 0 25 1 25 86 0 105 22 153 73 154 23 0 22 30 -2 30
-11 0 -33 -12 -50 -26z"/>
<path d="M2783 3924 c-32 -25 -33 -25 -33 -5 0 12 -6 21 -15 21 -13 0 -15 -21
-15 -130 0 -121 1 -130 19 -130 17 0 19 10 23 96 3 91 5 97 31 120 15 13 36
24 46 24 10 0 18 7 18 15 0 23 -38 18 -74 -11z"/>
<path d="M3288 3930 c-31 -24 -36 -45 -12 -54 10 -4 23 3 36 19 33 42 108 30
108 -17 0 -19 -17 -28 -89 -48 -62 -16 -95 -52 -87 -93 3 -18 14 -38 23 -44
33 -25 123 -12 146 21 4 7 9 3 13 -11 4 -16 14 -23 30 -23 21 0 23 3 14 26 -6
14 -10 63 -10 109 0 107 -13 126 -91 133 -45 3 -59 0 -81 -18z m132 -149 c0
-48 -26 -71 -81 -71 -77 0 -75 66 3 93 70 25 78 23 78 -22z"/>
<path d="M2900 3810 l0 -130 25 0 25 0 0 130 0 130 -25 0 -25 0 0 -130z"/>
</g>
</svg>
